<?xml version="1.0" standalone="no"?>
<!DOCTYPE svg PUBLIC "-//W3C//DTD SVG 1.1//EN" "http://www.w3.org/Graphics/SVG/1.1/DTD/svg11.dtd">
<svg xmlns="http://www.w3.org/2000/svg" id="Layer_1" data-name="Layer 1" viewBox="0 0 1353.01 1715.52" width="1353.010009765625" height="1715.52001953125">
  <defs>
    <style>
      .cls-1 {
        fill: #203d2d;
      }

      .cls-2 {
        fill: #efbf1b;
      }
    </style>
  </defs>
  <path class="cls-2" d="M868.71,410.76h-190.25c-1.42,0-2.57,1.15-2.57,2.57v199.11c0,1.42,1.15,2.57,2.57,2.57h236.5c1.85,0,3.1,1.9,2.36,3.6l-251.78,578.72c-.14.32-.21.67-.21,1.03v157.12c0,1.42,1.15,2.57,2.57,2.57h169.35c1.91,0,3.16,2.01,2.3,3.72-56.37,112.55-114.06,226.63-146.15,349.3-.25.96-4.06,3.86-5.04,4.04l-10.57.37c-1.26.23-5.81-.82-6.22-2.03-98.24-291.53-285.51-597.27-552.48-768.82C98.17,930.41,1.61,882.9.02,860.3c-.03-.36-.06-.78.17-1.05,26.24-30.5,120.6-79.23,161.1-112.48.05-.04.1-.08.15-.11,245.06-167.81,408.38-455.8,504.23-724.35.24-.67,8.85-16.58,11.24-18.96,4.18-4.16,10.95-3.88,15.06-2.18,15.62,6.44,43.9,97.45,52.09,119.42,36.52,97.97,75.85,195.58,126.88,286.35.96,1.71-.28,3.83-2.24,3.83Z"/>
  <polygon class="cls-1" points="1106.5 552.57 817.72 1212.86 1099.45 1212.86 1099.45 1293.85 719.11 1293.85 719.11 1218.14 1004.37 554.33 733.19 554.33 733.19 475.1 738.48 469.82 1101.21 469.82 1106.5 475.1 1106.5 552.57"/>
  <path class="cls-2" d="M916.71,1148.98l197.28-461.32,236.1,163.61,2.91,9.96c-10.72,10.81-179.74,119.59-207.65,145.73-51.94,48.65-100.01,93.54-145.89,142.02h-82.76Z"/>
</svg>