<?xml version="1.0" standalone="no"?>
<!DOCTYPE svg PUBLIC "-//W3C//DTD SVG 1.1//EN" "http://www.w3.org/Graphics/SVG/1.1/DTD/svg11.dtd">
<svg xmlns="http://www.w3.org/2000/svg" id="Layer_1" data-name="Layer 1" viewBox="0 0 1891.82 1090.91" width="1891.8199462890625" height="1090.9100341796875">
  <defs>
    <style>
      .cls-1 {
        fill: #efbf1b;
      }

      .cls-2 {
        fill: #fff;
      }
    </style>
  </defs>
  <g>
    <path class="cls-2" d="M1363.74,843.01l39.34,194.11,39.34-194.11h38.47v244.81h-26.23v-194.1c-2.85,1.06-2.87,8.37-3.5,11.36-12.83,60.45-22.59,121.93-36.61,181.96-5.4.6-24.01,3.16-26-2.18l-40.55-189.4v192.35h-22.73v-244.81h38.47Z"/>
    <g>
      <g>
        <polygon class="cls-2" points="1041.99 276.46 1153.91 626.19 1153.91 276.46 1202.87 276.46 1202.87 764.33 1145.16 764.33 1021.01 372.64 1021.01 764.33 972.05 764.33 972.05 276.46 1041.99 276.46"/>
        <g>
          <polygon class="cls-2" points="1718.71 276.46 1718.71 496.79 1836.74 496.79 1839.36 494.17 1839.36 276.46 1891.82 276.46 1891.82 764.33 1839.36 764.33 1839.36 546.62 1836.74 544 1718.71 544 1718.71 764.33 1664.5 764.33 1664.5 276.46 1718.71 276.46"/>
          <polygon class="cls-2" points="1612.04 276.46 1612.04 325.42 1523.74 325.42 1521.12 328.05 1521.12 764.33 1468.66 764.33 1468.66 328.05 1466.03 325.42 1377.73 325.42 1377.73 276.46 1612.04 276.46"/>
        </g>
        <rect class="cls-2" x="1272.81" y="276.46" width="54.21" height="487.86"/>
      </g>
      <g>
        <path class="cls-1" d="M510.46,237.88c-.37.71-1.34.48-2.09.58-3.17.03-10.16,0-19.19.02-19.15.05-42.64-.03-62.39,0-9.14,0-18.09-.06-26.82.05-4.45.38-5.86,1.81-6.24,6.04-.13,3.51-.01,6.22-.05,10.15,0,21.74,0,44.87,0,66.73,0,10.77,0,20.6,0,27.9,0,4.74,0,8.39,0,10.56.02,1.42.07,2.23.4,2.67,18.41,1.54,98.78.08,135.9.58,1.07,0,2.25.08,2.83,1.01.32.54.38,1.36.23,2.46-42.92,115.27-99.59,225.92-145.47,340.12-1.01,3.34-.93,5.71-.92,10.39.01,23.32-.02,69.06.01,84.87.05,3.33.39,3.59,3.68,3.63.99-.02,1.96.03,3.04,0,26.63.49,76.55-.96,96.23.54,1.12.75.3,2.8-1.49,6.08-23.76,41.37-45.03,84.5-61.81,129.28-7.36,19.04-14.27,45.77-20.25,63.88-.56,1.63-1.11,3.12-2.01,4.53-1.86,2.99-5.52,4.13-8.86,3.5-5.18-1.1-6.27-5.11-8.74-11.34-3.79-10.11-8.52-25.66-11.82-36.28-63.23-185.68-185.91-336.97-352.24-440.01-7.97-4.42-20.44-10.89-22.35-19.95-.6-5.17,2.99-6.84,8.43-10.7,11.51-7.76,30.21-19.1,42.63-26.89C211.02,362.65,333.26,197.1,385.41,12.55c1.82-5.98,6.68-19.79,12.87-7.81,19.67,58.31,45.75,116.12,75.82,170.05,9.91,16.95,24.32,41.57,33.48,57.25,1.93,3.34,3.07,5.1,2.88,5.81v.03Z"/>
        <polygon class="cls-2" points="909.1 276.46 909.1 325.42 762.21 325.42 762.21 493.29 881.12 493.29 881.12 540.5 762.21 540.5 762.21 715.37 909.1 715.37 909.1 764.33 708.01 764.33 708.01 276.46 909.1 276.46"/>
        <polygon class="cls-2" points="645.06 276.46 645.06 324.55 477.99 710.05 477.19 715.37 643.31 715.37 643.31 764.33 421.23 764.33 421.23 716.24 589.1 325.42 429.98 325.42 429.98 276.46 645.06 276.46"/>
        <path class="cls-1" d="M533.15,678.64l119.77-276.24c3.77,3.05,15.89,10.91,16.64,14.81l-.34,176.3c-30.74,26.93-60.87,54.47-87.98,85.14h-48.09Z"/>
      </g>
    </g>
    <polygon class="cls-2" points="1021.88 843.01 1080.46 1017.88 1080.46 843.01 1103.2 843.01 1103.2 1087.82 1075.22 1087.82 1012.27 890.23 1012.27 1087.82 987.79 1087.82 987.79 843.01 1021.88 843.01"/>
    <path class="cls-2" d="M1205.98,840.01c30.23-3.45,55.04,9.08,62.52,39.67,6.59,26.96,5.04,123.94,2.63,154.87-2.17,27.89-16.64,52.02-46.42,55-36.85,3.69-61.11-12.28-65.53-49.85.44-48.01-3.43-111.52.76-154.81,2.45-25.35,20.61-41.98,46.04-44.88ZM1235.49,871.59c-17.52-17.53-46.88-5.9-49.92,19.71-5.45,45.86-2.13,100.61-.04,148.29,5.98,33.26,49.68,37.01,57.34,1.69,5.87-27.07,3.98-106.02,2.04-136.25-.62-9.69-2.41-26.43-9.41-33.43Z"/>
    <path class="cls-2" d="M1888.33,907.71h-26.23c.76-15.56,1.05-36.01-16.71-41.87-28-9.26-41.82,13.74-39.06,39.07,5,45.8,76.58,60.25,81.97,113.86,3.22,32.05-8.32,67.15-44.59,70.79-52.34,5.25-67.83-28.38-65.57-75.18,5.17.88,23-1.91,25.48,1.65.83,16.79-1.59,45.41,20.98,48.96,27.52,4.33,40.32-15.06,37.02-40.53-5.85-45.26-76.31-60.44-81.71-114.12-3.57-35.5,10.05-69.01,49.76-70.86,43.05-2.01,61.14,28.6,58.64,68.26Z"/>
    <path class="cls-2" d="M770.96,923.45h-26.23v-35.85c0-11.27-12.94-22.19-23.78-23.47-22.01-2.61-32.31,11.97-33.99,32.15-3,36.07-2.64,98.45-.01,134.78,1.71,23.7,11.91,37.93,37.56,33.91,8.56-1.34,20.22-13.62,20.22-21.74v-44.59h26.23v41.09c0,21.56-18.61,45.35-40.12,49.06-41.42,7.13-67.19-12.52-70.12-54.22-2.69-38.39-3.31-105.52.11-143.44,3.99-44.28,50.12-66.84,86.96-43.3,11.11,7.1,23.18,28.63,23.18,41.52v34.1Z"/>
    <path class="cls-2" d="M1729.2,923.45h-26.23v-34.1c0-10.4-11.82-23.17-22.27-24.93-23.3-3.92-33.91,10.42-35.51,31.85-2.74,36.77-3.28,103.68,0,140.04,2.1,23.2,19.94,35.94,42.45,26.56,6.54-2.73,15.33-14.91,15.33-21.39v-42.84h26.23v37.6c0,1.03-2.04,11.18-2.53,13.21-14.27,59.3-102.63,53-107.61-7.98,2.55-48.55-3.44-100.56-.1-148.7,2.33-33.54,22.68-54.15,56.97-53.36,21.32.49,39.96,10.64,47.64,31.1,1.78,4.74,5.64,19.76,5.64,24.09v28.85Z"/>
    <polygon class="cls-2" points="608.34 843.01 608.34 867.5 534.89 867.5 534.89 951.43 594.35 951.43 594.35 975.91 534.89 975.91 534.89 1063.34 608.34 1063.34 608.34 1087.82 508.66 1087.82 508.66 843.01 608.34 843.01"/>
    <rect class="cls-2" x="1536.85" y="843.01" width="27.98" height="244.81"/>
  </g>
  <path class="cls-2" d="M856.56,840.85c30.23-3.45,55.04,9.08,62.52,39.67,6.59,26.96,5.04,123.94,2.63,154.87-2.17,27.89-16.64,52.02-46.42,55-36.85,3.69-61.11-12.28-65.53-49.85.44-48.01-3.43-111.52.76-154.81,2.45-25.35,20.61-41.98,46.04-44.88ZM886.08,872.43c-17.52-17.53-46.88-5.9-49.92,19.71-5.45,45.86-2.13,100.61-.04,148.29,5.98,33.26,49.68,37.01,57.34,1.69,5.87-27.07,3.98-106.02,2.04-136.25-.62-9.69-2.41-26.43-9.41-33.43Z"/>
</svg>