<?xml version="1.0" standalone="no"?>
<!DOCTYPE svg PUBLIC "-//W3C//DTD SVG 1.1//EN" "http://www.w3.org/Graphics/SVG/1.1/DTD/svg11.dtd">
<svg xmlns="http://www.w3.org/2000/svg" id="Layer_1" data-name="Layer 1" viewBox="0 0 1893.6 1092.92" width="1893.5999755859375" height="1092.9200439453125">
  <defs>
    <style>
      .cls-1 {
        fill: #203d2d;
      }

      .cls-2 {
        fill: #efbf1b;
      }
    </style>
  </defs>
  <g>
    <path class="cls-1" d="M1365.51,845.03l39.34,194.11,39.34-194.11h38.47v244.81h-26.23v-194.1c-2.85,1.06-2.87,8.37-3.5,11.36-12.83,60.45-22.59,121.93-36.61,181.96-5.4.6-24.01,3.16-26-2.18l-40.55-189.4v192.35h-22.73v-244.81h38.47Z"/>
    <g>
      <g>
        <polygon class="cls-1" points="1043.77 278.48 1155.68 628.2 1155.68 278.48 1204.64 278.48 1204.64 766.34 1146.94 766.34 1022.78 374.65 1022.78 766.34 973.82 766.34 973.82 278.48 1043.77 278.48"/>
        <g>
          <polygon class="cls-1" points="1720.48 278.48 1720.48 498.8 1838.52 498.8 1841.14 496.18 1841.14 278.48 1893.6 278.48 1893.6 766.34 1841.14 766.34 1841.14 548.64 1838.52 546.01 1720.48 546.01 1720.48 766.34 1666.28 766.34 1666.28 278.48 1720.48 278.48"/>
          <polygon class="cls-1" points="1613.82 278.48 1613.82 327.44 1525.51 327.44 1522.89 330.06 1522.89 766.34 1470.43 766.34 1470.43 330.06 1467.81 327.44 1379.5 327.44 1379.5 278.48 1613.82 278.48"/>
        </g>
        <rect class="cls-1" x="1274.59" y="278.48" width="54.21" height="487.86"/>
      </g>
      <g>
        <path class="cls-2" d="M510.44,240.01h-114.53l-2.62,2.62v121.53h139.89c-.18,5.25-3.01,10.32-4.95,15.16-44.28,110.55-96.2,218.46-141.93,328.44v97.05h104.92c-27.58,46.95-51.7,96.28-69.98,147.73-3.08,8.66-16.25,56.18-18.3,58.63-2.3,2.75-8.42,2.36-11.42.87-4.12-2.05-17.73-50.72-20.92-59.5-64.77-178.38-179.41-318.09-337.66-421.24-8.87-5.78-37.87-16.6-32.18-28.98,1.56-3.4,53.97-34.58,62.61-40.57,136.67-94.63,245.22-233.1,303.26-389.19,7.6-20.44,13.17-47.54,21.32-66.11,3.01-6.86,8.7-8.19,15-4.28,16.67,57.11,37.82,112.8,65.24,165.56l42.27,72.27Z"/>
        <polygon class="cls-1" points="910.87 278.48 910.87 327.44 763.99 327.44 763.99 495.3 882.89 495.3 882.89 542.52 763.99 542.52 763.99 717.38 910.87 717.38 910.87 766.34 709.78 766.34 709.78 278.48 910.87 278.48"/>
        <polygon class="cls-1" points="646.83 278.48 646.83 326.56 479.77 712.07 478.96 717.38 645.08 717.38 645.08 766.34 423.01 766.34 423.01 718.25 590.88 327.44 431.75 327.44 431.75 278.48 646.83 278.48"/>
        <path class="cls-2" d="M534.92,680.66l119.77-276.24c3.77,3.05,15.89,10.91,16.64,14.81l-.34,176.3c-30.74,26.93-60.87,54.47-87.98,85.14h-48.09Z"/>
      </g>
    </g>
    <polygon class="cls-1" points="1023.66 845.03 1082.24 1019.89 1082.24 845.03 1104.97 845.03 1104.97 1089.83 1076.99 1089.83 1014.04 892.24 1014.04 1089.83 989.56 1089.83 989.56 845.03 1023.66 845.03"/>
    <path class="cls-1" d="M1207.75,842.02c30.23-3.45,55.04,9.08,62.52,39.67,6.59,26.96,5.04,123.94,2.63,154.87-2.17,27.89-16.64,52.02-46.42,55-36.85,3.69-61.11-12.28-65.53-49.85.44-48.01-3.43-111.52.76-154.81,2.45-25.35,20.61-41.98,46.04-44.88ZM1237.27,873.6c-17.52-17.53-46.88-5.9-49.92,19.71-5.45,45.86-2.13,100.61-.04,148.29,5.98,33.26,49.68,37.01,57.34,1.69,5.87-27.07,3.98-106.02,2.04-136.25-.62-9.69-2.41-26.43-9.41-33.43Z"/>
    <path class="cls-1" d="M1890.1,909.73h-26.23c.76-15.56,1.05-36.01-16.71-41.87-28-9.26-41.82,13.74-39.06,39.07,5,45.8,76.58,60.25,81.97,113.86,3.22,32.05-8.32,67.15-44.59,70.79-52.34,5.25-67.83-28.38-65.57-75.18,5.17.88,23-1.91,25.48,1.65.83,16.79-1.59,45.41,20.98,48.96,27.52,4.33,40.32-15.06,37.02-40.53-5.85-45.26-76.31-60.44-81.71-114.12-3.57-35.5,10.05-69.01,49.76-70.86,43.05-2.01,61.14,28.6,58.64,68.26Z"/>
    <path class="cls-1" d="M772.73,925.46h-26.23v-35.85c0-11.27-12.94-22.19-23.78-23.47-22.01-2.61-32.31,11.97-33.99,32.15-3,36.07-2.64,98.45-.01,134.78,1.71,23.7,11.91,37.93,37.56,33.91,8.56-1.34,20.22-13.62,20.22-21.74v-44.59h26.23v41.09c0,21.56-18.61,45.35-40.12,49.06-41.42,7.13-67.19-12.52-70.12-54.22-2.69-38.39-3.31-105.52.11-143.44,3.99-44.28,50.12-66.84,86.96-43.3,11.11,7.1,23.18,28.63,23.18,41.52v34.1Z"/>
    <path class="cls-1" d="M1730.98,925.46h-26.23v-34.1c0-10.4-11.82-23.17-22.27-24.93-23.3-3.92-33.91,10.42-35.51,31.85-2.74,36.77-3.28,103.68,0,140.04,2.1,23.2,19.94,35.94,42.45,26.56,6.54-2.73,15.33-14.91,15.33-21.39v-42.84h26.23v37.6c0,1.03-2.04,11.18-2.53,13.21-14.27,59.3-102.63,53-107.61-7.98,2.55-48.55-3.44-100.56-.1-148.7,2.33-33.54,22.68-54.15,56.97-53.36,21.32.49,39.96,10.64,47.64,31.1,1.78,4.74,5.64,19.76,5.64,24.09v28.85Z"/>
    <polygon class="cls-1" points="610.11 845.03 610.11 869.51 536.67 869.51 536.67 953.44 596.12 953.44 596.12 977.92 536.67 977.92 536.67 1065.35 610.11 1065.35 610.11 1089.83 510.44 1089.83 510.44 845.03 610.11 845.03"/>
    <rect class="cls-1" x="1538.63" y="845.03" width="27.98" height="244.81"/>
  </g>
  <path class="cls-1" d="M858.33,842.86c30.23-3.45,55.04,9.08,62.52,39.67,6.59,26.96,5.04,123.94,2.63,154.87-2.17,27.89-16.64,52.02-46.42,55-36.85,3.69-61.11-12.28-65.53-49.85.44-48.01-3.43-111.52.76-154.81,2.45-25.35,20.61-41.98,46.04-44.88ZM887.85,874.44c-17.52-17.53-46.88-5.9-49.92,19.71-5.45,45.86-2.13,100.61-.04,148.29,5.98,33.26,49.68,37.01,57.34,1.69,5.87-27.07,3.98-106.02,2.04-136.25-.62-9.69-2.41-26.43-9.41-33.43Z"/>
</svg>